<?xml version="1.0" encoding="UTF-8"?>
<svg width="1080" height="2400" viewBox="0 0 1080 2400" xmlns="http://www.w3.org/2000/svg">
  <defs>
    <linearGradient id="grad" x1="0" y1="0" x2="1" y2="1">
      <stop offset="0%" stop-color="#FFF6ED"/>
      <stop offset="100%" stop-color="#FFE4D6"/>
    </linearGradient>
    <g id="paw" fill="#000000" fill-opacity="0.06">
      <ellipse cx="0" cy="0" rx="26" ry="20"/>
      <circle cx="-36" cy="-28" r="10"/>
      <circle cx="-12" cy="-42" r="12"/>
      <circle cx="12" cy="-42" r="12"/>
      <circle cx="36" cy="-28" r="10"/>
    </g>
  </defs>
  <rect width="1080" height="2400" fill="url(#grad)"/>
  <!-- subtle blobs -->
  <g>
    <circle cx="200" cy="400" r="220" fill="#FF9F80" opacity="0.10"/>
    <circle cx="980" cy="260" r="180" fill="#FF6F61" opacity="0.08"/>
    <circle cx="860" cy="2000" r="260" fill="#FFB6A0" opacity="0.10"/>
  </g>
  <!-- scattered paws -->
  <g>
    <use href="#paw" transform="translate(160,260) rotate(-12)"/>
    <use href="#paw" transform="translate(380,520) rotate(8)"/>
    <use href="#paw" transform="translate(720,360) rotate(-18)"/>
    <use href="#paw" transform="translate(940,620) rotate(15)"/>
    <use href="#paw" transform="translate(240,980) rotate(-6)"/>
    <use href="#paw" transform="translate(560,1200) rotate(9)"/>
    <use href="#paw" transform="translate(880,1080) rotate(-12)"/>
    <use href="#paw" transform="translate(320,1620) rotate(6)"/>
    <use href="#paw" transform="translate(680,1760) rotate(-14)"/>
    <use href="#paw" transform="translate(220,2120) rotate(10)"/>
  </g>
</svg>
